<svg width="28" height="28" viewBox="0 0 28 28" fill="none" xmlns="http://www.w3.org/2000/svg">
<path d="M23.3248 15.1611C23.3248 20.9923 19.2429 23.9079 14.3914 25.5989C14.1373 25.685 13.8614 25.6809 13.61 25.5873C8.74676 23.9079 4.66492 20.9923 4.66492 15.1611V6.9974C4.66492 6.68809 4.78779 6.39145 5.0065 6.17274C5.22521 5.95403 5.52185 5.83116 5.83116 5.83116C8.16364 5.83116 11.0792 4.43167 13.1085 2.65898C13.3556 2.44789 13.6699 2.33191 13.9948 2.33191C14.3198 2.33191 14.6341 2.44789 14.8812 2.65898C16.9221 4.44333 19.8261 5.83116 22.1585 5.83116C22.4678 5.83116 22.7645 5.95403 22.9832 6.17274C23.2019 6.39145 23.3248 6.68809 23.3248 6.9974V15.1611Z" stroke="#155DFC" stroke-width="2.33248" stroke-linecap="round" stroke-linejoin="round"/>
<path d="M10.4962 13.9948L12.8287 16.3273L17.4937 11.6624" stroke="#155DFC" stroke-width="2.33248" stroke-linecap="round" stroke-linejoin="round"/>
</svg>
