<svg width="28" height="28" viewBox="0 0 28 28" fill="none" xmlns="http://www.w3.org/2000/svg">
<path d="M18.0499 15.0328L19.8168 24.9762C19.8366 25.0933 19.8201 25.2136 19.7697 25.3211C19.7192 25.4286 19.6372 25.5182 19.5345 25.5778C19.4318 25.6373 19.3133 25.6642 19.1949 25.6546C19.0766 25.6451 18.9639 25.5996 18.8721 25.5243L14.697 22.3907C14.4954 22.2401 14.2506 22.1587 13.999 22.1587C13.7474 22.1587 13.5025 22.2401 13.301 22.3907L9.11884 25.5232C9.02708 25.5983 8.91459 25.6437 8.79637 25.6533C8.67815 25.6628 8.55983 25.6361 8.45719 25.5767C8.35455 25.5172 8.27247 25.4279 8.22191 25.3206C8.17134 25.2134 8.1547 25.0932 8.17419 24.9762L9.93988 15.0328" stroke="#E17100" stroke-width="2.33248" stroke-linecap="round" stroke-linejoin="round"/>
<path d="M13.9949 16.3274C17.8595 16.3274 20.9923 13.1945 20.9923 9.32997C20.9923 5.46538 17.8595 2.33252 13.9949 2.33252C10.1303 2.33252 6.99744 5.46538 6.99744 9.32997C6.99744 13.1945 10.1303 16.3274 13.9949 16.3274Z" stroke="#E17100" stroke-width="2.33248" stroke-linecap="round" stroke-linejoin="round"/>
</svg>
